<?xml version="1.0" encoding="utf-8"?>
<!DOCTYPE svg PUBLIC "-//W3C//DTD SVG 1.1//EN" "http://www.w3.org/Graphics/SVG/1.1/DTD/svg11.dtd">
<svg version="1.1" id="Layer_1" xmlns="http://www.w3.org/2000/svg" xmlns:xlink="http://www.w3.org/1999/xlink" x="0px" y="0px"
width="462px" height="462px" viewBox="0 0 462 462" enable-background="new 0 0 462 462" xml:space="preserve">
<rect x="0" y="0" width="462" height="462" fill="rgb(255,255,255)" /><g transform="translate(28,28)"><g><defs>
    <radialGradient id="grad">
    <stop offset="5%" stop-color="rgb(92,139,41)" />
    <stop offset="95%" stop-color="rgb(37,73,47)" />
    </radialGradient>
<mask id="gmask"><g>
<g transform="translate(112,0) scale(0.14,0.14)"><g transform="" style="fill: rgb(255, 255, 255);">
<g>
	<path d="M100,34.375V0H34.375C24.87,0,16.764,3.353,10.059,10.059S0,24.87,0,34.375V100h100V34.375z"/>
</g>
</g></g><g transform="translate(126,0) scale(0.14,0.14)"><g transform="" style="fill: rgb(255, 255, 255);">
<g>
	<path d="M100,34.375c0-9.505-3.354-17.611-10.059-24.316S75.131,0,65.625,0H0v100h100V34.375z"/>
</g>
</g></g><g transform="translate(154,0) scale(0.14,0.14)"><g transform="" style="fill: rgb(255, 255, 255);">
<polygon points="100,100 50,0 50,0 0,100 "/>
</g></g><g transform="translate(182,0) scale(0.14,0.14)"><g transform="" style="fill: rgb(255, 255, 255);">
<polygon points="99.999,49.999 99.998,49.999 49.999,0 0,49.999 -0.001,49.999 -0.001,50 0,50 49.999,99.999 99.998,50 99.999,50 
	99.998,50 "/>
</g></g><g transform="translate(224,0) scale(0.14,0.14)"><g transform="" style="fill: rgb(255, 255, 255);">
<polygon points="99.999,49.999 99.998,49.999 49.999,0 0,49.999 -0.001,49.999 -0.001,50 0,50 49.999,99.999 99.998,50 99.999,50 
	99.998,50 "/>
</g></g><g transform="translate(252,0) scale(0.14,0.14)"><g transform="" style="fill: rgb(255, 255, 255);">
<g>
	<path d="M100,34.375V0H34.375C24.87,0,16.764,3.353,10.059,10.059S0,24.87,0,34.375V100h100V34.375z"/>
</g>
</g></g><g transform="translate(266,0) scale(0.14,0.14)"><g transform="" style="fill: rgb(255, 255, 255);">
<rect width="100" height="100"/>
</g></g><g transform="translate(280,0) scale(0.14,0.14)"><g transform="" style="fill: rgb(255, 255, 255);">
<g>
	<path d="M100,34.375c0-9.505-3.354-17.611-10.059-24.316S75.131,0,65.625,0H0v100h100V34.375z"/>
</g>
</g></g><g transform="translate(112,14) scale(0.14,0.14)"><g transform="" style="fill: rgb(255, 255, 255);">
<g>
	<path d="M100,0H0v65.625c0,9.506,3.353,17.611,10.059,24.316S24.87,100,34.375,100H100V0z"/>
</g>
</g></g><g transform="translate(126,14) scale(0.14,0.14)"><g transform="" style="fill: rgb(255, 255, 255);">
<rect width="100" height="100"/>
</g></g><g transform="translate(154,14) scale(0.14,0.14)"><g transform="" style="fill: rgb(255, 255, 255);">
<g>
	<path d="M100,0H0v65.625c0,9.506,3.353,17.611,10.059,24.316S24.87,100,34.375,100H100V0z"/>
</g>
</g></g><g transform="translate(168,14) scale(0.14,0.14)"><g transform="" style="fill: rgb(255, 255, 255);">
<polygon points="0,100 100,50 100,50 0,0 "/>
</g></g><g transform="translate(196,14) scale(0.14,0.14)"><g transform="" style="fill: rgb(255, 255, 255);">
<polygon points="100,100 50,0 50,0 0,100 "/>
</g></g><g transform="translate(252,14) scale(0.14,0.14)"><g transform="" style="fill: rgb(255, 255, 255);">
<polygon points="0,-0.001 50,99.999 50,99.999 100,-0.001 "/>
</g></g><g transform="translate(280,14) scale(0.14,0.14)"><g transform="" style="fill: rgb(255, 255, 255);">
<rect width="100" height="100"/>
</g></g><g transform="translate(126,28) scale(0.14,0.14)"><g transform="" style="fill: rgb(255, 255, 255);">
<rect width="100" height="100"/>
</g></g><g transform="translate(140,28) scale(0.14,0.14)"><g transform="" style="fill: rgb(255, 255, 255);">
<g>
	<path d="M100,34.375c0-9.505-3.354-17.611-10.059-24.316S75.131,0,65.625,0H0v100h100V34.375z"/>
</g>
</g></g><g transform="translate(182,28) scale(0.14,0.14)"><g transform="" style="fill: rgb(255, 255, 255);">
<g>
	<path d="M100,34.375V0H34.375C24.87,0,16.764,3.353,10.059,10.059S0,24.87,0,34.375V100h100V34.375z"/>
</g>
</g></g><g transform="translate(196,28) scale(0.14,0.14)"><g transform="" style="fill: rgb(255, 255, 255);">
<rect width="100" height="100"/>
</g></g><g transform="translate(210,28) scale(0.14,0.14)"><g transform="" style="fill: rgb(255, 255, 255);">
<g>
	<path d="M100,34.375c0-9.505-3.354-17.611-10.059-24.316S75.131,0,65.625,0H0v100h100V34.375z"/>
</g>
</g></g><g transform="translate(266,28) scale(0.14,0.14)"><g transform="" style="fill: rgb(255, 255, 255);">
<polygon points="100,100 0,50 0,50 100,0 "/>
</g></g><g transform="translate(280,28) scale(0.14,0.14)"><g transform="" style="fill: rgb(255, 255, 255);">
<g>
	<path d="M100,0H0v100h65.625c9.506,0,17.611-3.354,24.316-10.059S100,75.131,100,65.625V0z"/>
</g>
</g></g><g transform="translate(112,42) scale(0.14,0.14)"><g transform="" style="fill: rgb(255, 255, 255);">
<polygon points="100,100 0,50 0,50 100,0 "/>
</g></g><g transform="translate(126,42) scale(0.14,0.14)"><g transform="" style="fill: rgb(255, 255, 255);">
<rect width="100" height="100"/>
</g></g><g transform="translate(140,42) scale(0.14,0.14)"><g transform="" style="fill: rgb(255, 255, 255);">
<rect width="100" height="100"/>
</g></g><g transform="translate(154,42) scale(0.14,0.14)"><g transform="" style="fill: rgb(255, 255, 255);">
<rect width="100" height="100"/>
</g></g><g transform="translate(168,42) scale(0.14,0.14)"><g transform="" style="fill: rgb(255, 255, 255);">
<rect width="100" height="100"/>
</g></g><g transform="translate(182,42) scale(0.14,0.14)"><g transform="" style="fill: rgb(255, 255, 255);">
<rect width="100" height="100"/>
</g></g><g transform="translate(196,42) scale(0.14,0.14)"><g transform="" style="fill: rgb(255, 255, 255);">
<rect width="100" height="100"/>
</g></g><g transform="translate(210,42) scale(0.14,0.14)"><g transform="" style="fill: rgb(255, 255, 255);">
<rect width="100" height="100"/>
</g></g><g transform="translate(224,42) scale(0.14,0.14)"><g transform="" style="fill: rgb(255, 255, 255);">
<rect width="100" height="100"/>
</g></g><g transform="translate(238,42) scale(0.14,0.14)"><g transform="" style="fill: rgb(255, 255, 255);">
<polygon points="0,100 100,50 100,50 0,0 "/>
</g></g><g transform="translate(140,56) scale(0.14,0.14)"><g transform="" style="fill: rgb(255, 255, 255);">
<g>
	<path d="M100,0H0v65.625c0,9.506,3.353,17.611,10.059,24.316S24.87,100,34.375,100H100V0z"/>
</g>
</g></g><g transform="translate(154,56) scale(0.14,0.14)"><g transform="" style="fill: rgb(255, 255, 255);">
<g>
	<path d="M100,0H0v100h65.625c9.506,0,17.611-3.354,24.316-10.059S100,75.131,100,65.625V0z"/>
</g>
</g></g><g transform="translate(196,56) scale(0.14,0.14)"><g transform="" style="fill: rgb(255, 255, 255);">
<rect width="100" height="100"/>
</g></g><g transform="translate(210,56) scale(0.14,0.14)"><g transform="" style="fill: rgb(255, 255, 255);">
<rect width="100" height="100"/>
</g></g><g transform="translate(224,56) scale(0.14,0.14)"><g transform="" style="fill: rgb(255, 255, 255);">
<g>
	<path d="M100,0H0v100h65.625c9.506,0,17.611-3.354,24.316-10.059S100,75.131,100,65.625V0z"/>
</g>
</g></g><g transform="translate(126,70) scale(0.14,0.14)"><g transform="" style="fill: rgb(255, 255, 255);">
<polygon points="99.999,49.999 99.998,49.999 49.999,0 0,49.999 -0.001,49.999 -0.001,50 0,50 49.999,99.999 99.998,50 99.999,50 
	99.998,50 "/>
</g></g><g transform="translate(182,70) scale(0.14,0.14)"><g transform="" style="fill: rgb(255, 255, 255);">
<polygon points="100,100 0,50 0,50 100,0 "/>
</g></g><g transform="translate(196,70) scale(0.14,0.14)"><g transform="" style="fill: rgb(255, 255, 255);">
<rect width="100" height="100"/>
</g></g><g transform="translate(238,70) scale(0.14,0.14)"><g transform="" style="fill: rgb(255, 255, 255);">
<polygon points="99.999,49.999 99.998,49.999 49.999,0 0,49.999 -0.001,49.999 -0.001,50 0,50 49.999,99.999 99.998,50 99.999,50 
	99.998,50 "/>
</g></g><g transform="translate(266,70) scale(0.14,0.14)"><g transform="" style="fill: rgb(255, 255, 255);">
<polygon points="99.999,49.999 99.998,49.999 49.999,0 0,49.999 -0.001,49.999 -0.001,50 0,50 49.999,99.999 99.998,50 99.999,50 
	99.998,50 "/>
</g></g><g transform="translate(112,84) scale(0.14,0.14)"><g transform="" style="fill: rgb(255, 255, 255);">
<polygon points="100,100 50,0 50,0 0,100 "/>
</g></g><g transform="translate(140,84) scale(0.14,0.14)"><g transform="" style="fill: rgb(255, 255, 255);">
<polygon points="99.999,49.999 99.998,49.999 49.999,0 0,49.999 -0.001,49.999 -0.001,50 0,50 49.999,99.999 99.998,50 99.999,50 
	99.998,50 "/>
</g></g><g transform="translate(168,84) scale(0.14,0.14)"><g transform="" style="fill: rgb(255, 255, 255);">
<polygon points="100,100 50,0 50,0 0,100 "/>
</g></g><g transform="translate(196,84) scale(0.14,0.14)"><g transform="" style="fill: rgb(255, 255, 255);">
<polygon points="0,-0.001 50,99.999 50,99.999 100,-0.001 "/>
</g></g><g transform="translate(224,84) scale(0.14,0.14)"><g transform="" style="fill: rgb(255, 255, 255);">
<polygon points="100,100 50,0 50,0 0,100 "/>
</g></g><g transform="translate(252,84) scale(0.14,0.14)"><g transform="" style="fill: rgb(255, 255, 255);">
<polygon points="99.999,49.999 99.998,49.999 49.999,0 0,49.999 -0.001,49.999 -0.001,50 0,50 49.999,99.999 99.998,50 99.999,50 
	99.998,50 "/>
</g></g><g transform="translate(280,84) scale(0.14,0.14)"><g transform="" style="fill: rgb(255, 255, 255);">
<polygon points="99.999,49.999 99.998,49.999 49.999,0 0,49.999 -0.001,49.999 -0.001,50 0,50 49.999,99.999 99.998,50 99.999,50 
	99.998,50 "/>
</g></g><g transform="translate(112,98) scale(0.14,0.14)"><g transform="" style="fill: rgb(255, 255, 255);">
<g>
	<path d="M100,0H0v65.625c0,9.506,3.353,17.611,10.059,24.316S24.87,100,34.375,100H100V0z"/>
</g>
</g></g><g transform="translate(126,98) scale(0.14,0.14)"><g transform="" style="fill: rgb(255, 255, 255);">
<g>
	<path d="M100,34.375c0-9.505-3.354-17.611-10.059-24.316S75.131,0,65.625,0H0v100h100V34.375z"/>
</g>
</g></g><g transform="translate(168,98) scale(0.14,0.14)"><g transform="" style="fill: rgb(255, 255, 255);">
<polygon points="0,-0.001 50,99.999 50,99.999 100,-0.001 "/>
</g></g><g transform="translate(224,98) scale(0.14,0.14)"><g transform="" style="fill: rgb(255, 255, 255);">
<rect width="100" height="100"/>
</g></g><g transform="translate(238,98) scale(0.14,0.14)"><g transform="" style="fill: rgb(255, 255, 255);">
<g>
	<path d="M100,34.375c0-9.505-3.354-17.611-10.059-24.316S75.131,0,65.625,0H0v100h100V34.375z"/>
</g>
</g></g><g transform="translate(266,98) scale(0.14,0.14)"><g transform="" style="fill: rgb(255, 255, 255);">
<polygon points="100,100 50,0 50,0 0,100 "/>
</g></g><g transform="translate(0,112) scale(0.14,0.14)"><g transform="" style="fill: rgb(255, 255, 255);">
<polygon points="100,100 50,0 50,0 0,100 "/>
</g></g><g transform="translate(28,112) scale(0.14,0.14)"><g transform="" style="fill: rgb(255, 255, 255);">
<g>
	<path d="M100,34.375V0H34.375C24.87,0,16.764,3.353,10.059,10.059S0,24.87,0,34.375V100h100V34.375z"/>
</g>
</g></g><g transform="translate(42,112) scale(0.14,0.14)"><g transform="" style="fill: rgb(255, 255, 255);">
<g>
	<path d="M100,34.375c0-9.505-3.354-17.611-10.059-24.316S75.131,0,65.625,0H0v100h100V34.375z"/>
</g>
</g></g><g transform="translate(70,112) scale(0.14,0.14)"><g transform="" style="fill: rgb(255, 255, 255);">
<g>
	<path d="M100,34.375V0H34.375C24.87,0,16.764,3.353,10.059,10.059S0,24.87,0,34.375V100h100V34.375z"/>
</g>
</g></g><g transform="translate(84,112) scale(0.14,0.14)"><g transform="" style="fill: rgb(255, 255, 255);">
<rect width="100" height="100"/>
</g></g><g transform="translate(98,112) scale(0.14,0.14)"><g transform="" style="fill: rgb(255, 255, 255);">
<polygon points="0,100 100,50 100,50 0,0 "/>
</g></g><g transform="translate(126,112) scale(0.14,0.14)"><g transform="" style="fill: rgb(255, 255, 255);">
<rect width="100" height="100"/>
</g></g><g transform="translate(196,112) scale(0.14,0.14)"><g transform="" style="fill: rgb(255, 255, 255);">
<polygon points="100,100 50,0 50,0 0,100 "/>
</g></g><g transform="translate(224,112) scale(0.14,0.14)"><g transform="" style="fill: rgb(255, 255, 255);">
<rect width="100" height="100"/>
</g></g><g transform="translate(238,112) scale(0.14,0.14)"><g transform="" style="fill: rgb(255, 255, 255);">
<rect width="100" height="100"/>
</g></g><g transform="translate(266,112) scale(0.14,0.14)"><g transform="" style="fill: rgb(255, 255, 255);">
<g>
	<path d="M100,0H0v65.625c0,9.506,3.353,17.611,10.059,24.316S24.87,100,34.375,100H100V0z"/>
</g>
</g></g><g transform="translate(280,112) scale(0.14,0.14)"><g transform="" style="fill: rgb(255, 255, 255);">
<g>
	<path d="M100,34.375c0-9.505-3.354-17.611-10.059-24.316S75.131,0,65.625,0H0v100h100V34.375z"/>
</g>
</g></g><g transform="translate(308,112) scale(0.14,0.14)"><g transform="" style="fill: rgb(255, 255, 255);">
<polygon points="100,100 50,0 50,0 0,100 "/>
</g></g><g transform="translate(350,112) scale(0.14,0.14)"><g transform="" style="fill: rgb(255, 255, 255);">
<polygon points="99.999,49.999 99.998,49.999 49.999,0 0,49.999 -0.001,49.999 -0.001,50 0,50 49.999,99.999 99.998,50 99.999,50 
	99.998,50 "/>
</g></g><g transform="translate(378,112) scale(0.14,0.14)"><g transform="" style="fill: rgb(255, 255, 255);">
<polygon points="100,100 0,50 0,50 100,0 "/>
</g></g><g transform="translate(392,112) scale(0.14,0.14)"><g transform="" style="fill: rgb(255, 255, 255);">
<g>
	<path d="M100,34.375c0-9.505-3.354-17.611-10.059-24.316S75.131,0,65.625,0H0v100h100V34.375z"/>
</g>
</g></g><g transform="translate(0,126) scale(0.14,0.14)"><g transform="" style="fill: rgb(255, 255, 255);">
<polygon points="0,-0.001 50,99.999 50,99.999 100,-0.001 "/>
</g></g><g transform="translate(28,126) scale(0.14,0.14)"><g transform="" style="fill: rgb(255, 255, 255);">
<g>
	<path d="M100,0H0v65.625c0,9.506,3.353,17.611,10.059,24.316S24.87,100,34.375,100H100V0z"/>
</g>
</g></g><g transform="translate(42,126) scale(0.14,0.14)"><g transform="" style="fill: rgb(255, 255, 255);">
<g>
	<path d="M100,0H0v100h65.625c9.506,0,17.611-3.354,24.316-10.059S100,75.131,100,65.625V0z"/>
</g>
</g></g><g transform="translate(70,126) scale(0.14,0.14)"><g transform="" style="fill: rgb(255, 255, 255);">
<polygon points="0,-0.001 50,99.999 50,99.999 100,-0.001 "/>
</g></g><g transform="translate(126,126) scale(0.14,0.14)"><g transform="" style="fill: rgb(255, 255, 255);">
<polygon points="0,-0.001 50,99.999 50,99.999 100,-0.001 "/>
</g></g><g transform="translate(154,126) scale(0.14,0.14)"><g transform="" style="fill: rgb(255, 255, 255);">
<g>
	<path d="M100,34.375V0H34.375C24.87,0,16.764,3.353,10.059,10.059S0,24.87,0,34.375V100h100V34.375z"/>
</g>
</g></g><g transform="translate(168,126) scale(0.14,0.14)"><g transform="" style="fill: rgb(255, 255, 255);">
<g>
	<path d="M100,34.375c0-9.505-3.354-17.611-10.059-24.316S75.131,0,65.625,0H0v100h100V34.375z"/>
</g>
</g></g><g transform="translate(196,126) scale(0.14,0.14)"><g transform="" style="fill: rgb(255, 255, 255);">
<polygon points="0,-0.001 50,99.999 50,99.999 100,-0.001 "/>
</g></g><g transform="translate(224,126) scale(0.14,0.14)"><g transform="" style="fill: rgb(255, 255, 255);">
<g>
	<path d="M100,0H0v65.625c0,9.506,3.353,17.611,10.059,24.316S24.87,100,34.375,100H100V0z"/>
</g>
</g></g><g transform="translate(238,126) scale(0.14,0.14)"><g transform="" style="fill: rgb(255, 255, 255);">
<rect width="100" height="100"/>
</g></g><g transform="translate(280,126) scale(0.14,0.14)"><g transform="" style="fill: rgb(255, 255, 255);">
<rect width="100" height="100"/>
</g></g><g transform="translate(294,126) scale(0.14,0.14)"><g transform="" style="fill: rgb(255, 255, 255);">
<rect width="100" height="100"/>
</g></g><g transform="translate(308,126) scale(0.14,0.14)"><g transform="" style="fill: rgb(255, 255, 255);">
<rect width="100" height="100"/>
</g></g><g transform="translate(322,126) scale(0.14,0.14)"><g transform="" style="fill: rgb(255, 255, 255);">
<rect width="100" height="100"/>
</g></g><g transform="translate(336,126) scale(0.14,0.14)"><g transform="" style="fill: rgb(255, 255, 255);">
<polygon points="0,100 100,50 100,50 0,0 "/>
</g></g><g transform="translate(392,126) scale(0.14,0.14)"><g transform="" style="fill: rgb(255, 255, 255);">
<polygon points="0,-0.001 50,99.999 50,99.999 100,-0.001 "/>
</g></g><g transform="translate(14,140) scale(0.14,0.14)"><g transform="" style="fill: rgb(255, 255, 255);">
<polygon points="100,100 50,0 50,0 0,100 "/>
</g></g><g transform="translate(56,140) scale(0.14,0.14)"><g transform="" style="fill: rgb(255, 255, 255);">
<polygon points="100,100 50,0 50,0 0,100 "/>
</g></g><g transform="translate(84,140) scale(0.14,0.14)"><g transform="" style="fill: rgb(255, 255, 255);">
<polygon points="99.999,49.999 99.998,49.999 49.999,0 0,49.999 -0.001,49.999 -0.001,50 0,50 49.999,99.999 99.998,50 99.999,50 
	99.998,50 "/>
</g></g><g transform="translate(112,140) scale(0.14,0.14)"><g transform="" style="fill: rgb(255, 255, 255);">
<polygon points="99.999,49.999 99.998,49.999 49.999,0 0,49.999 -0.001,49.999 -0.001,50 0,50 49.999,99.999 99.998,50 99.999,50 
	99.998,50 "/>
</g></g><g transform="translate(140,140) scale(0.14,0.14)"><g transform="" style="fill: rgb(255, 255, 255);">
<g>
	<path d="M100,34.375V0H34.375C24.87,0,16.764,3.353,10.059,10.059S0,24.87,0,34.375V100h100V34.375z"/>
</g>
</g></g><g transform="translate(154,140) scale(0.14,0.14)"><g transform="" style="fill: rgb(255, 255, 255);">
<rect width="100" height="100"/>
</g></g><g transform="translate(168,140) scale(0.14,0.14)"><g transform="" style="fill: rgb(255, 255, 255);">
<rect width="100" height="100"/>
</g></g><g transform="translate(182,140) scale(0.14,0.14)"><g transform="" style="fill: rgb(255, 255, 255);">
<g>
	<path d="M100,34.375c0-9.505-3.354-17.611-10.059-24.316S75.131,0,65.625,0H0v100h100V34.375z"/>
</g>
</g></g><g transform="translate(238,140) scale(0.14,0.14)"><g transform="" style="fill: rgb(255, 255, 255);">
<polygon points="0,-0.001 50,99.999 50,99.999 100,-0.001 "/>
</g></g><g transform="translate(280,140) scale(0.14,0.14)"><g transform="" style="fill: rgb(255, 255, 255);">
<g>
	<path d="M100,0H0v65.625c0,9.506,3.353,17.611,10.059,24.316S24.87,100,34.375,100H100V0z"/>
</g>
</g></g><g transform="translate(294,140) scale(0.14,0.14)"><g transform="" style="fill: rgb(255, 255, 255);">
<rect width="100" height="100"/>
</g></g><g transform="translate(364,140) scale(0.14,0.14)"><g transform="" style="fill: rgb(255, 255, 255);">
<polygon points="100,100 0,50 0,50 100,0 "/>
</g></g><g transform="translate(378,140) scale(0.14,0.14)"><g transform="" style="fill: rgb(255, 255, 255);">
<polygon points="0,100 100,50 100,50 0,0 "/>
</g></g><g transform="translate(14,154) scale(0.14,0.14)"><g transform="" style="fill: rgb(255, 255, 255);">
<rect width="100" height="100"/>
</g></g><g transform="translate(56,154) scale(0.14,0.14)"><g transform="" style="fill: rgb(255, 255, 255);">
<rect width="100" height="100"/>
</g></g><g transform="translate(140,154) scale(0.14,0.14)"><g transform="" style="fill: rgb(255, 255, 255);">
<rect width="100" height="100"/>
</g></g><g transform="translate(182,154) scale(0.14,0.14)"><g transform="" style="fill: rgb(255, 255, 255);">
<g>
	<path d="M100,0H0v65.625c0,9.506,3.353,17.611,10.059,24.316S24.87,100,34.375,100H100V0z"/>
</g>
</g></g><g transform="translate(196,154) scale(0.14,0.14)"><g transform="" style="fill: rgb(255, 255, 255);">
<rect width="100" height="100"/>
</g></g><g transform="translate(210,154) scale(0.14,0.14)"><g transform="" style="fill: rgb(255, 255, 255);">
<rect width="100" height="100"/>
</g></g><g transform="translate(224,154) scale(0.14,0.14)"><g transform="" style="fill: rgb(255, 255, 255);">
<g>
	<path d="M100,34.375c0-9.505-3.354-17.611-10.059-24.316S75.131,0,65.625,0H0v100h100V34.375z"/>
</g>
</g></g><g transform="translate(252,154) scale(0.14,0.14)"><g transform="" style="fill: rgb(255, 255, 255);">
<polygon points="99.999,49.999 99.998,49.999 49.999,0 0,49.999 -0.001,49.999 -0.001,50 0,50 49.999,99.999 99.998,50 99.999,50 
	99.998,50 "/>
</g></g><g transform="translate(294,154) scale(0.14,0.14)"><g transform="" style="fill: rgb(255, 255, 255);">
<polygon points="0,-0.001 50,99.999 50,99.999 100,-0.001 "/>
</g></g><g transform="translate(392,154) scale(0.14,0.14)"><g transform="" style="fill: rgb(255, 255, 255);">
<polygon points="99.999,49.999 99.998,49.999 49.999,0 0,49.999 -0.001,49.999 -0.001,50 0,50 49.999,99.999 99.998,50 99.999,50 
	99.998,50 "/>
</g></g><g transform="translate(0,168) scale(0.14,0.14)"><g transform="" style="fill: rgb(255, 255, 255);">
<g>
	<path d="M100,34.375V0H34.375C24.87,0,16.764,3.353,10.059,10.059S0,24.87,0,34.375V100h100V34.375z"/>
</g>
</g></g><g transform="translate(14,168) scale(0.14,0.14)"><g transform="" style="fill: rgb(255, 255, 255);">
<g>
	<path d="M100,0H0v100h65.625c9.506,0,17.611-3.354,24.316-10.059S100,75.131,100,65.625V0z"/>
</g>
</g></g><g transform="translate(56,168) scale(0.14,0.14)"><g transform="" style="fill: rgb(255, 255, 255);">
<rect width="100" height="100"/>
</g></g><g transform="translate(70,168) scale(0.14,0.14)"><g transform="" style="fill: rgb(255, 255, 255);">
<rect width="100" height="100"/>
</g></g><g transform="translate(84,168) scale(0.14,0.14)"><g transform="" style="fill: rgb(255, 255, 255);">
<polygon points="0,100 100,50 100,50 0,0 "/>
</g></g><g transform="translate(112,168) scale(0.14,0.14)"><g transform="" style="fill: rgb(255, 255, 255);">
<polygon points="99.999,49.999 99.998,49.999 49.999,0 0,49.999 -0.001,49.999 -0.001,50 0,50 49.999,99.999 99.998,50 99.999,50 
	99.998,50 "/>
</g></g><g transform="translate(140,168) scale(0.14,0.14)"><g transform="" style="fill: rgb(255, 255, 255);">
<rect width="100" height="100"/>
</g></g><g transform="translate(154,168) scale(0.14,0.14)"><g transform="" style="fill: rgb(255, 255, 255);">
<g>
	<path d="M100,34.375c0-9.505-3.354-17.611-10.059-24.316S75.131,0,65.625,0H0v100h100V34.375z"/>
</g>
</g></g><g transform="translate(210,168) scale(0.14,0.14)"><g transform="" style="fill: rgb(255, 255, 255);">
<rect width="100" height="100"/>
</g></g><g transform="translate(224,168) scale(0.14,0.14)"><g transform="" style="fill: rgb(255, 255, 255);">
<rect width="100" height="100"/>
</g></g><g transform="translate(266,168) scale(0.14,0.14)"><g transform="" style="fill: rgb(255, 255, 255);">
<polygon points="99.999,49.999 99.998,49.999 49.999,0 0,49.999 -0.001,49.999 -0.001,50 0,50 49.999,99.999 99.998,50 99.999,50 
	99.998,50 "/>
</g></g><g transform="translate(350,168) scale(0.14,0.14)"><g transform="" style="fill: rgb(255, 255, 255);">
<polygon points="100,100 0,50 0,50 100,0 "/>
</g></g><g transform="translate(364,168) scale(0.14,0.14)"><g transform="" style="fill: rgb(255, 255, 255);">
<g>
	<path d="M100,34.375c0-9.505-3.354-17.611-10.059-24.316S75.131,0,65.625,0H0v100h100V34.375z"/>
</g>
</g></g><g transform="translate(0,182) scale(0.14,0.14)"><g transform="" style="fill: rgb(255, 255, 255);">
<rect width="100" height="100"/>
</g></g><g transform="translate(28,182) scale(0.14,0.14)"><g transform="" style="fill: rgb(255, 255, 255);">
<polygon points="100,100 0,50 0,50 100,0 "/>
</g></g><g transform="translate(42,182) scale(0.14,0.14)"><g transform="" style="fill: rgb(255, 255, 255);">
<rect width="100" height="100"/>
</g></g><g transform="translate(56,182) scale(0.14,0.14)"><g transform="" style="fill: rgb(255, 255, 255);">
<rect width="100" height="100"/>
</g></g><g transform="translate(70,182) scale(0.14,0.14)"><g transform="" style="fill: rgb(255, 255, 255);">
<g>
	<path d="M100,0H0v100h65.625c9.506,0,17.611-3.354,24.316-10.059S100,75.131,100,65.625V0z"/>
</g>
</g></g><g transform="translate(126,182) scale(0.14,0.14)"><g transform="" style="fill: rgb(255, 255, 255);">
<g>
	<path d="M100,34.375V0H34.375C24.87,0,16.764,3.353,10.059,10.059S0,24.87,0,34.375V100h100V34.375z"/>
</g>
</g></g><g transform="translate(140,182) scale(0.14,0.14)"><g transform="" style="fill: rgb(255, 255, 255);">
<rect width="100" height="100"/>
</g></g><g transform="translate(154,182) scale(0.14,0.14)"><g transform="" style="fill: rgb(255, 255, 255);">
<rect width="100" height="100"/>
</g></g><g transform="translate(168,182) scale(0.14,0.14)"><g transform="" style="fill: rgb(255, 255, 255);">
<rect width="100" height="100"/>
</g></g><g transform="translate(182,182) scale(0.14,0.14)"><g transform="" style="fill: rgb(255, 255, 255);">
<rect width="100" height="100"/>
</g></g><g transform="translate(196,182) scale(0.14,0.14)"><g transform="" style="fill: rgb(255, 255, 255);">
<rect width="100" height="100"/>
</g></g><g transform="translate(210,182) scale(0.14,0.14)"><g transform="" style="fill: rgb(255, 255, 255);">
<rect width="100" height="100"/>
</g></g><g transform="translate(224,182) scale(0.14,0.14)"><g transform="" style="fill: rgb(255, 255, 255);">
<rect width="100" height="100"/>
</g></g><g transform="translate(238,182) scale(0.14,0.14)"><g transform="" style="fill: rgb(255, 255, 255);">
<rect width="100" height="100"/>
</g></g><g transform="translate(252,182) scale(0.14,0.14)"><g transform="" style="fill: rgb(255, 255, 255);">
<polygon points="0,100 100,50 100,50 0,0 "/>
</g></g><g transform="translate(308,182) scale(0.14,0.14)"><g transform="" style="fill: rgb(255, 255, 255);">
<polygon points="100,100 50,0 50,0 0,100 "/>
</g></g><g transform="translate(364,182) scale(0.14,0.14)"><g transform="" style="fill: rgb(255, 255, 255);">
<rect width="100" height="100"/>
</g></g><g transform="translate(378,182) scale(0.14,0.14)"><g transform="" style="fill: rgb(255, 255, 255);">
<rect width="100" height="100"/>
</g></g><g transform="translate(392,182) scale(0.14,0.14)"><g transform="" style="fill: rgb(255, 255, 255);">
<g>
	<path d="M100,34.375c0-9.505-3.354-17.611-10.059-24.316S75.131,0,65.625,0H0v100h100V34.375z"/>
</g>
</g></g><g transform="translate(0,196) scale(0.14,0.14)"><g transform="" style="fill: rgb(255, 255, 255);">
<polygon points="0,-0.001 50,99.999 50,99.999 100,-0.001 "/>
</g></g><g transform="translate(84,196) scale(0.14,0.14)"><g transform="" style="fill: rgb(255, 255, 255);">
<polygon points="100,100 0,50 0,50 100,0 "/>
</g></g><g transform="translate(98,196) scale(0.14,0.14)"><g transform="" style="fill: rgb(255, 255, 255);">
<g>
	<path d="M100,34.375c0-9.505-3.354-17.611-10.059-24.316S75.131,0,65.625,0H0v100h100V34.375z"/>
</g>
</g></g><g transform="translate(126,196) scale(0.14,0.14)"><g transform="" style="fill: rgb(255, 255, 255);">
<polygon points="0,-0.001 50,99.999 50,99.999 100,-0.001 "/>
</g></g><g transform="translate(196,196) scale(0.14,0.14)"><g transform="" style="fill: rgb(255, 255, 255);">
<polygon points="0,-0.001 50,99.999 50,99.999 100,-0.001 "/>
</g></g><g transform="translate(266,196) scale(0.14,0.14)"><g transform="" style="fill: rgb(255, 255, 255);">
<polygon points="100,100 50,0 50,0 0,100 "/>
</g></g><g transform="translate(294,196) scale(0.14,0.14)"><g transform="" style="fill: rgb(255, 255, 255);">
<polygon points="100,100 0,50 0,50 100,0 "/>
</g></g><g transform="translate(308,196) scale(0.14,0.14)"><g transform="" style="fill: rgb(255, 255, 255);">
<g>
	<path d="M100,0H0v100h65.625c9.506,0,17.611-3.354,24.316-10.059S100,75.131,100,65.625V0z"/>
</g>
</g></g><g transform="translate(364,196) scale(0.14,0.14)"><g transform="" style="fill: rgb(255, 255, 255);">
<g>
	<path d="M100,0H0v65.625c0,9.506,3.353,17.611,10.059,24.316S24.87,100,34.375,100H100V0z"/>
</g>
</g></g><g transform="translate(378,196) scale(0.14,0.14)"><g transform="" style="fill: rgb(255, 255, 255);">
<rect width="100" height="100"/>
</g></g><g transform="translate(392,196) scale(0.14,0.14)"><g transform="" style="fill: rgb(255, 255, 255);">
<g>
	<path d="M100,0H0v100h65.625c9.506,0,17.611-3.354,24.316-10.059S100,75.131,100,65.625V0z"/>
</g>
</g></g><g transform="translate(14,210) scale(0.14,0.14)"><g transform="" style="fill: rgb(255, 255, 255);">
<polygon points="100,100 0,50 0,50 100,0 "/>
</g></g><g transform="translate(28,210) scale(0.14,0.14)"><g transform="" style="fill: rgb(255, 255, 255);">
<rect width="100" height="100"/>
</g></g><g transform="translate(42,210) scale(0.14,0.14)"><g transform="" style="fill: rgb(255, 255, 255);">
<rect width="100" height="100"/>
</g></g><g transform="translate(56,210) scale(0.14,0.14)"><g transform="" style="fill: rgb(255, 255, 255);">
<rect width="100" height="100"/>
</g></g><g transform="translate(70,210) scale(0.14,0.14)"><g transform="" style="fill: rgb(255, 255, 255);">
<g>
	<path d="M100,34.375c0-9.505-3.354-17.611-10.059-24.316S75.131,0,65.625,0H0v100h100V34.375z"/>
</g>
</g></g><g transform="translate(98,210) scale(0.14,0.14)"><g transform="" style="fill: rgb(255, 255, 255);">
<rect width="100" height="100"/>
</g></g><g transform="translate(140,210) scale(0.14,0.14)"><g transform="" style="fill: rgb(255, 255, 255);">
<polygon points="100,100 0,50 0,50 100,0 "/>
</g></g><g transform="translate(154,210) scale(0.14,0.14)"><g transform="" style="fill: rgb(255, 255, 255);">
<g>
	<path d="M100,34.375c0-9.505-3.354-17.611-10.059-24.316S75.131,0,65.625,0H0v100h100V34.375z"/>
</g>
</g></g><g transform="translate(182,210) scale(0.14,0.14)"><g transform="" style="fill: rgb(255, 255, 255);">
<polygon points="99.999,49.999 99.998,49.999 49.999,0 0,49.999 -0.001,49.999 -0.001,50 0,50 49.999,99.999 99.998,50 99.999,50 
	99.998,50 "/>
</g></g><g transform="translate(224,210) scale(0.14,0.14)"><g transform="" style="fill: rgb(255, 255, 255);">
<polygon points="99.999,49.999 99.998,49.999 49.999,0 0,49.999 -0.001,49.999 -0.001,50 0,50 49.999,99.999 99.998,50 99.999,50 
	99.998,50 "/>
</g></g><g transform="translate(266,210) scale(0.14,0.14)"><g transform="" style="fill: rgb(255, 255, 255);">
<g>
	<path d="M100,0H0v65.625c0,9.506,3.353,17.611,10.059,24.316S24.87,100,34.375,100H100V0z"/>
</g>
</g></g><g transform="translate(280,210) scale(0.14,0.14)"><g transform="" style="fill: rgb(255, 255, 255);">
<g>
	<path d="M100,34.375c0-9.505-3.354-17.611-10.059-24.316S75.131,0,65.625,0H0v100h100V34.375z"/>
</g>
</g></g><g transform="translate(336,210) scale(0.14,0.14)"><g transform="" style="fill: rgb(255, 255, 255);">
<polygon points="100,100 50,0 50,0 0,100 "/>
</g></g><g transform="translate(378,210) scale(0.14,0.14)"><g transform="" style="fill: rgb(255, 255, 255);">
<rect width="100" height="100"/>
</g></g><g transform="translate(0,224) scale(0.14,0.14)"><g transform="" style="fill: rgb(255, 255, 255);">
<polygon points="99.999,49.999 99.998,49.999 49.999,0 0,49.999 -0.001,49.999 -0.001,50 0,50 49.999,99.999 99.998,50 99.999,50 
	99.998,50 "/>
</g></g><g transform="translate(42,224) scale(0.14,0.14)"><g transform="" style="fill: rgb(255, 255, 255);">
<polygon points="0,-0.001 50,99.999 50,99.999 100,-0.001 "/>
</g></g><g transform="translate(70,224) scale(0.14,0.14)"><g transform="" style="fill: rgb(255, 255, 255);">
<g>
	<path d="M100,0H0v65.625c0,9.506,3.353,17.611,10.059,24.316S24.87,100,34.375,100H100V0z"/>
</g>
</g></g><g transform="translate(84,224) scale(0.14,0.14)"><g transform="" style="fill: rgb(255, 255, 255);">
<rect width="100" height="100"/>
</g></g><g transform="translate(98,224) scale(0.14,0.14)"><g transform="" style="fill: rgb(255, 255, 255);">
<rect width="100" height="100"/>
</g></g><g transform="translate(112,224) scale(0.14,0.14)"><g transform="" style="fill: rgb(255, 255, 255);">
<rect width="100" height="100"/>
</g></g><g transform="translate(126,224) scale(0.14,0.14)"><g transform="" style="fill: rgb(255, 255, 255);">
<g>
	<path d="M100,34.375c0-9.505-3.354-17.611-10.059-24.316S75.131,0,65.625,0H0v100h100V34.375z"/>
</g>
</g></g><g transform="translate(154,224) scale(0.14,0.14)"><g transform="" style="fill: rgb(255, 255, 255);">
<rect width="100" height="100"/>
</g></g><g transform="translate(210,224) scale(0.14,0.14)"><g transform="" style="fill: rgb(255, 255, 255);">
<polygon points="100,100 50,0 50,0 0,100 "/>
</g></g><g transform="translate(252,224) scale(0.14,0.14)"><g transform="" style="fill: rgb(255, 255, 255);">
<polygon points="100,100 50,0 50,0 0,100 "/>
</g></g><g transform="translate(280,224) scale(0.14,0.14)"><g transform="" style="fill: rgb(255, 255, 255);">
<rect width="100" height="100"/>
</g></g><g transform="translate(336,224) scale(0.14,0.14)"><g transform="" style="fill: rgb(255, 255, 255);">
<g>
	<path d="M100,0H0v65.625c0,9.506,3.353,17.611,10.059,24.316S24.87,100,34.375,100H100V0z"/>
</g>
</g></g><g transform="translate(350,224) scale(0.14,0.14)"><g transform="" style="fill: rgb(255, 255, 255);">
<g>
	<path d="M100,34.375c0-9.505-3.354-17.611-10.059-24.316S75.131,0,65.625,0H0v100h100V34.375z"/>
</g>
</g></g><g transform="translate(378,224) scale(0.14,0.14)"><g transform="" style="fill: rgb(255, 255, 255);">
<rect width="100" height="100"/>
</g></g><g transform="translate(14,238) scale(0.14,0.14)"><g transform="" style="fill: rgb(255, 255, 255);">
<polygon points="99.999,49.999 99.998,49.999 49.999,0 0,49.999 -0.001,49.999 -0.001,50 0,50 49.999,99.999 99.998,50 99.999,50 
	99.998,50 "/>
</g></g><g transform="translate(126,238) scale(0.14,0.14)"><g transform="" style="fill: rgb(255, 255, 255);">
<g>
	<path d="M100,0H0v65.625c0,9.506,3.353,17.611,10.059,24.316S24.87,100,34.375,100H100V0z"/>
</g>
</g></g><g transform="translate(140,238) scale(0.14,0.14)"><g transform="" style="fill: rgb(255, 255, 255);">
<rect width="100" height="100"/>
</g></g><g transform="translate(154,238) scale(0.14,0.14)"><g transform="" style="fill: rgb(255, 255, 255);">
<rect width="100" height="100"/>
</g></g><g transform="translate(168,238) scale(0.14,0.14)"><g transform="" style="fill: rgb(255, 255, 255);">
<rect width="100" height="100"/>
</g></g><g transform="translate(182,238) scale(0.14,0.14)"><g transform="" style="fill: rgb(255, 255, 255);">
<polygon points="0,100 100,50 100,50 0,0 "/>
</g></g><g transform="translate(210,238) scale(0.14,0.14)"><g transform="" style="fill: rgb(255, 255, 255);">
<rect width="100" height="100"/>
</g></g><g transform="translate(224,238) scale(0.14,0.14)"><g transform="" style="fill: rgb(255, 255, 255);">
<g>
	<path d="M100,34.375c0-9.505-3.354-17.611-10.059-24.316S75.131,0,65.625,0H0v100h100V34.375z"/>
</g>
</g></g><g transform="translate(252,238) scale(0.14,0.14)"><g transform="" style="fill: rgb(255, 255, 255);">
<polygon points="0,-0.001 50,99.999 50,99.999 100,-0.001 "/>
</g></g><g transform="translate(280,238) scale(0.14,0.14)"><g transform="" style="fill: rgb(255, 255, 255);">
<rect width="100" height="100"/>
</g></g><g transform="translate(322,238) scale(0.14,0.14)"><g transform="" style="fill: rgb(255, 255, 255);">
<polygon points="99.999,49.999 99.998,49.999 49.999,0 0,49.999 -0.001,49.999 -0.001,50 0,50 49.999,99.999 99.998,50 99.999,50 
	99.998,50 "/>
</g></g><g transform="translate(350,238) scale(0.14,0.14)"><g transform="" style="fill: rgb(255, 255, 255);">
<g>
	<path d="M100,0H0v65.625c0,9.506,3.353,17.611,10.059,24.316S24.87,100,34.375,100H100V0z"/>
</g>
</g></g><g transform="translate(364,238) scale(0.14,0.14)"><g transform="" style="fill: rgb(255, 255, 255);">
<rect width="100" height="100"/>
</g></g><g transform="translate(378,238) scale(0.14,0.14)"><g transform="" style="fill: rgb(255, 255, 255);">
<g>
	<path d="M100,0H0v100h65.625c9.506,0,17.611-3.354,24.316-10.059S100,75.131,100,65.625V0z"/>
</g>
</g></g><g transform="translate(0,252) scale(0.14,0.14)"><g transform="" style="fill: rgb(255, 255, 255);">
<polygon points="99.999,49.999 99.998,49.999 49.999,0 0,49.999 -0.001,49.999 -0.001,50 0,50 49.999,99.999 99.998,50 99.999,50 
	99.998,50 "/>
</g></g><g transform="translate(28,252) scale(0.14,0.14)"><g transform="" style="fill: rgb(255, 255, 255);">
<g>
	<path d="M100,34.375V0H34.375C24.87,0,16.764,3.353,10.059,10.059S0,24.87,0,34.375V100h100V34.375z"/>
</g>
</g></g><g transform="translate(42,252) scale(0.14,0.14)"><g transform="" style="fill: rgb(255, 255, 255);">
<rect width="100" height="100"/>
</g></g><g transform="translate(56,252) scale(0.14,0.14)"><g transform="" style="fill: rgb(255, 255, 255);">
<rect width="100" height="100"/>
</g></g><g transform="translate(70,252) scale(0.14,0.14)"><g transform="" style="fill: rgb(255, 255, 255);">
<rect width="100" height="100"/>
</g></g><g transform="translate(84,252) scale(0.14,0.14)"><g transform="" style="fill: rgb(255, 255, 255);">
<rect width="100" height="100"/>
</g></g><g transform="translate(98,252) scale(0.14,0.14)"><g transform="" style="fill: rgb(255, 255, 255);">
<rect width="100" height="100"/>
</g></g><g transform="translate(112,252) scale(0.14,0.14)"><g transform="" style="fill: rgb(255, 255, 255);">
<polygon points="0,100 100,50 100,50 0,0 "/>
</g></g><g transform="translate(140,252) scale(0.14,0.14)"><g transform="" style="fill: rgb(255, 255, 255);">
<polygon points="0,-0.001 50,99.999 50,99.999 100,-0.001 "/>
</g></g><g transform="translate(210,252) scale(0.14,0.14)"><g transform="" style="fill: rgb(255, 255, 255);">
<g>
	<path d="M100,0H0v65.625c0,9.506,3.353,17.611,10.059,24.316S24.87,100,34.375,100H100V0z"/>
</g>
</g></g><g transform="translate(224,252) scale(0.14,0.14)"><g transform="" style="fill: rgb(255, 255, 255);">
<rect width="100" height="100"/>
</g></g><g transform="translate(238,252) scale(0.14,0.14)"><g transform="" style="fill: rgb(255, 255, 255);">
<g>
	<path d="M100,34.375c0-9.505-3.354-17.611-10.059-24.316S75.131,0,65.625,0H0v100h100V34.375z"/>
</g>
</g></g><g transform="translate(280,252) scale(0.14,0.14)"><g transform="" style="fill: rgb(255, 255, 255);">
<rect width="100" height="100"/>
</g></g><g transform="translate(308,252) scale(0.14,0.14)"><g transform="" style="fill: rgb(255, 255, 255);">
<polygon points="100,100 50,0 50,0 0,100 "/>
</g></g><g transform="translate(364,252) scale(0.14,0.14)"><g transform="" style="fill: rgb(255, 255, 255);">
<rect width="100" height="100"/>
</g></g><g transform="translate(28,266) scale(0.14,0.14)"><g transform="" style="fill: rgb(255, 255, 255);">
<rect width="100" height="100"/>
</g></g><g transform="translate(70,266) scale(0.14,0.14)"><g transform="" style="fill: rgb(255, 255, 255);">
<rect width="100" height="100"/>
</g></g><g transform="translate(98,266) scale(0.14,0.14)"><g transform="" style="fill: rgb(255, 255, 255);">
<rect width="100" height="100"/>
</g></g><g transform="translate(224,266) scale(0.14,0.14)"><g transform="" style="fill: rgb(255, 255, 255);">
<rect width="100" height="100"/>
</g></g><g transform="translate(238,266) scale(0.14,0.14)"><g transform="" style="fill: rgb(255, 255, 255);">
<rect width="100" height="100"/>
</g></g><g transform="translate(252,266) scale(0.14,0.14)"><g transform="" style="fill: rgb(255, 255, 255);">
<rect width="100" height="100"/>
</g></g><g transform="translate(266,266) scale(0.14,0.14)"><g transform="" style="fill: rgb(255, 255, 255);">
<rect width="100" height="100"/>
</g></g><g transform="translate(280,266) scale(0.14,0.14)"><g transform="" style="fill: rgb(255, 255, 255);">
<rect width="100" height="100"/>
</g></g><g transform="translate(294,266) scale(0.14,0.14)"><g transform="" style="fill: rgb(255, 255, 255);">
<rect width="100" height="100"/>
</g></g><g transform="translate(308,266) scale(0.14,0.14)"><g transform="" style="fill: rgb(255, 255, 255);">
<rect width="100" height="100"/>
</g></g><g transform="translate(336,266) scale(0.14,0.14)"><g transform="" style="fill: rgb(255, 255, 255);">
<polygon points="100,100 50,0 50,0 0,100 "/>
</g></g><g transform="translate(364,266) scale(0.14,0.14)"><g transform="" style="fill: rgb(255, 255, 255);">
<rect width="100" height="100"/>
</g></g><g transform="translate(14,280) scale(0.14,0.14)"><g transform="" style="fill: rgb(255, 255, 255);">
<polygon points="100,100 0,50 0,50 100,0 "/>
</g></g><g transform="translate(28,280) scale(0.14,0.14)"><g transform="" style="fill: rgb(255, 255, 255);">
<g>
	<path d="M100,0H0v100h65.625c9.506,0,17.611-3.354,24.316-10.059S100,75.131,100,65.625V0z"/>
</g>
</g></g><g transform="translate(70,280) scale(0.14,0.14)"><g transform="" style="fill: rgb(255, 255, 255);">
<g>
	<path d="M100,0H0v65.625c0,9.506,3.353,17.611,10.059,24.316S24.87,100,34.375,100H100V0z"/>
</g>
</g></g><g transform="translate(84,280) scale(0.14,0.14)"><g transform="" style="fill: rgb(255, 255, 255);">
<rect width="100" height="100"/>
</g></g><g transform="translate(98,280) scale(0.14,0.14)"><g transform="" style="fill: rgb(255, 255, 255);">
<g>
	<path d="M100,0H0v100h65.625c9.506,0,17.611-3.354,24.316-10.059S100,75.131,100,65.625V0z"/>
</g>
</g></g><g transform="translate(154,280) scale(0.14,0.14)"><g transform="" style="fill: rgb(255, 255, 255);">
<polygon points="100,100 0,50 0,50 100,0 "/>
</g></g><g transform="translate(168,280) scale(0.14,0.14)"><g transform="" style="fill: rgb(255, 255, 255);">
<rect width="100" height="100"/>
</g></g><g transform="translate(182,280) scale(0.14,0.14)"><g transform="" style="fill: rgb(255, 255, 255);">
<g>
	<path d="M100,34.375c0-9.505-3.354-17.611-10.059-24.316S75.131,0,65.625,0H0v100h100V34.375z"/>
</g>
</g></g><g transform="translate(210,280) scale(0.14,0.14)"><g transform="" style="fill: rgb(255, 255, 255);">
<g>
	<path d="M100,34.375V0H34.375C24.87,0,16.764,3.353,10.059,10.059S0,24.87,0,34.375V100h100V34.375z"/>
</g>
</g></g><g transform="translate(224,280) scale(0.14,0.14)"><g transform="" style="fill: rgb(255, 255, 255);">
<rect width="100" height="100"/>
</g></g><g transform="translate(238,280) scale(0.14,0.14)"><g transform="" style="fill: rgb(255, 255, 255);">
<rect width="100" height="100"/>
</g></g><g transform="translate(252,280) scale(0.14,0.14)"><g transform="" style="fill: rgb(255, 255, 255);">
<rect width="100" height="100"/>
</g></g><g transform="translate(266,280) scale(0.14,0.14)"><g transform="" style="fill: rgb(255, 255, 255);">
<rect width="100" height="100"/>
</g></g><g transform="translate(280,280) scale(0.14,0.14)"><g transform="" style="fill: rgb(255, 255, 255);">
<rect width="100" height="100"/>
</g></g><g transform="translate(294,280) scale(0.14,0.14)"><g transform="" style="fill: rgb(255, 255, 255);">
<rect width="100" height="100"/>
</g></g><g transform="translate(308,280) scale(0.14,0.14)"><g transform="" style="fill: rgb(255, 255, 255);">
<rect width="100" height="100"/>
</g></g><g transform="translate(322,280) scale(0.14,0.14)"><g transform="" style="fill: rgb(255, 255, 255);">
<rect width="100" height="100"/>
</g></g><g transform="translate(336,280) scale(0.14,0.14)"><g transform="" style="fill: rgb(255, 255, 255);">
<rect width="100" height="100"/>
</g></g><g transform="translate(350,280) scale(0.14,0.14)"><g transform="" style="fill: rgb(255, 255, 255);">
<rect width="100" height="100"/>
</g></g><g transform="translate(364,280) scale(0.14,0.14)"><g transform="" style="fill: rgb(255, 255, 255);">
<rect width="100" height="100"/>
</g></g><g transform="translate(112,294) scale(0.14,0.14)"><g transform="" style="fill: rgb(255, 255, 255);">
<polygon points="100,100 50,0 50,0 0,100 "/>
</g></g><g transform="translate(140,294) scale(0.14,0.14)"><g transform="" style="fill: rgb(255, 255, 255);">
<polygon points="99.999,49.999 99.998,49.999 49.999,0 0,49.999 -0.001,49.999 -0.001,50 0,50 49.999,99.999 99.998,50 99.999,50 
	99.998,50 "/>
</g></g><g transform="translate(168,294) scale(0.14,0.14)"><g transform="" style="fill: rgb(255, 255, 255);">
<g>
	<path d="M100,0H0v65.625c0,9.506,3.353,17.611,10.059,24.316S24.87,100,34.375,100H100V0z"/>
</g>
</g></g><g transform="translate(182,294) scale(0.14,0.14)"><g transform="" style="fill: rgb(255, 255, 255);">
<rect width="100" height="100"/>
</g></g><g transform="translate(196,294) scale(0.14,0.14)"><g transform="" style="fill: rgb(255, 255, 255);">
<rect width="100" height="100"/>
</g></g><g transform="translate(210,294) scale(0.14,0.14)"><g transform="" style="fill: rgb(255, 255, 255);">
<rect width="100" height="100"/>
</g></g><g transform="translate(224,294) scale(0.14,0.14)"><g transform="" style="fill: rgb(255, 255, 255);">
<g>
	<path d="M100,0H0v100h65.625c9.506,0,17.611-3.354,24.316-10.059S100,75.131,100,65.625V0z"/>
</g>
</g></g><g transform="translate(280,294) scale(0.14,0.14)"><g transform="" style="fill: rgb(255, 255, 255);">
<rect width="100" height="100"/>
</g></g><g transform="translate(336,294) scale(0.14,0.14)"><g transform="" style="fill: rgb(255, 255, 255);">
<rect width="100" height="100"/>
</g></g><g transform="translate(350,294) scale(0.14,0.14)"><g transform="" style="fill: rgb(255, 255, 255);">
<rect width="100" height="100"/>
</g></g><g transform="translate(364,294) scale(0.14,0.14)"><g transform="" style="fill: rgb(255, 255, 255);">
<rect width="100" height="100"/>
</g></g><g transform="translate(378,294) scale(0.14,0.14)"><g transform="" style="fill: rgb(255, 255, 255);">
<rect width="100" height="100"/>
</g></g><g transform="translate(392,294) scale(0.14,0.14)"><g transform="" style="fill: rgb(255, 255, 255);">
<polygon points="0,100 100,50 100,50 0,0 "/>
</g></g><g transform="translate(112,308) scale(0.14,0.14)"><g transform="" style="fill: rgb(255, 255, 255);">
<rect width="100" height="100"/>
</g></g><g transform="translate(154,308) scale(0.14,0.14)"><g transform="" style="fill: rgb(255, 255, 255);">
<polygon points="100,100 50,0 50,0 0,100 "/>
</g></g><g transform="translate(182,308) scale(0.14,0.14)"><g transform="" style="fill: rgb(255, 255, 255);">
<polygon points="0,-0.001 50,99.999 50,99.999 100,-0.001 "/>
</g></g><g transform="translate(280,308) scale(0.14,0.14)"><g transform="" style="fill: rgb(255, 255, 255);">
<rect width="100" height="100"/>
</g></g><g transform="translate(308,308) scale(0.14,0.14)"><g transform="" style="fill: rgb(255, 255, 255);">
<polygon points="99.999,49.999 99.998,49.999 49.999,0 0,49.999 -0.001,49.999 -0.001,50 0,50 49.999,99.999 99.998,50 99.999,50 
	99.998,50 "/>
</g></g><g transform="translate(336,308) scale(0.14,0.14)"><g transform="" style="fill: rgb(255, 255, 255);">
<rect width="100" height="100"/>
</g></g><g transform="translate(350,308) scale(0.14,0.14)"><g transform="" style="fill: rgb(255, 255, 255);">
<rect width="100" height="100"/>
</g></g><g transform="translate(378,308) scale(0.14,0.14)"><g transform="" style="fill: rgb(255, 255, 255);">
<rect width="100" height="100"/>
</g></g><g transform="translate(112,322) scale(0.14,0.14)"><g transform="" style="fill: rgb(255, 255, 255);">
<g>
	<path d="M100,0H0v65.625c0,9.506,3.353,17.611,10.059,24.316S24.87,100,34.375,100H100V0z"/>
</g>
</g></g><g transform="translate(126,322) scale(0.14,0.14)"><g transform="" style="fill: rgb(255, 255, 255);">
<polygon points="0,100 100,50 100,50 0,0 "/>
</g></g><g transform="translate(154,322) scale(0.14,0.14)"><g transform="" style="fill: rgb(255, 255, 255);">
<rect width="100" height="100"/>
</g></g><g transform="translate(210,322) scale(0.14,0.14)"><g transform="" style="fill: rgb(255, 255, 255);">
<g>
	<path d="M100,34.375V0H34.375C24.87,0,16.764,3.353,10.059,10.059S0,24.87,0,34.375V100h100V34.375z"/>
</g>
</g></g><g transform="translate(224,322) scale(0.14,0.14)"><g transform="" style="fill: rgb(255, 255, 255);">
<polygon points="0,100 100,50 100,50 0,0 "/>
</g></g><g transform="translate(252,322) scale(0.14,0.14)"><g transform="" style="fill: rgb(255, 255, 255);">
<polygon points="99.999,49.999 99.998,49.999 49.999,0 0,49.999 -0.001,49.999 -0.001,50 0,50 49.999,99.999 99.998,50 99.999,50 
	99.998,50 "/>
</g></g><g transform="translate(280,322) scale(0.14,0.14)"><g transform="" style="fill: rgb(255, 255, 255);">
<rect width="100" height="100"/>
</g></g><g transform="translate(336,322) scale(0.14,0.14)"><g transform="" style="fill: rgb(255, 255, 255);">
<rect width="100" height="100"/>
</g></g><g transform="translate(350,322) scale(0.14,0.14)"><g transform="" style="fill: rgb(255, 255, 255);">
<g>
	<path d="M100,0H0v100h65.625c9.506,0,17.611-3.354,24.316-10.059S100,75.131,100,65.625V0z"/>
</g>
</g></g><g transform="translate(378,322) scale(0.14,0.14)"><g transform="" style="fill: rgb(255, 255, 255);">
<polygon points="0,-0.001 50,99.999 50,99.999 100,-0.001 "/>
</g></g><g transform="translate(140,336) scale(0.14,0.14)"><g transform="" style="fill: rgb(255, 255, 255);">
<g>
	<path d="M100,34.375V0H34.375C24.87,0,16.764,3.353,10.059,10.059S0,24.87,0,34.375V100h100V34.375z"/>
</g>
</g></g><g transform="translate(154,336) scale(0.14,0.14)"><g transform="" style="fill: rgb(255, 255, 255);">
<rect width="100" height="100"/>
</g></g><g transform="translate(168,336) scale(0.14,0.14)"><g transform="" style="fill: rgb(255, 255, 255);">
<polygon points="0,100 100,50 100,50 0,0 "/>
</g></g><g transform="translate(196,336) scale(0.14,0.14)"><g transform="" style="fill: rgb(255, 255, 255);">
<g>
	<path d="M100,34.375V0H34.375C24.87,0,16.764,3.353,10.059,10.059S0,24.87,0,34.375V100h100V34.375z"/>
</g>
</g></g><g transform="translate(210,336) scale(0.14,0.14)"><g transform="" style="fill: rgb(255, 255, 255);">
<g>
	<path d="M100,0H0v100h65.625c9.506,0,17.611-3.354,24.316-10.059S100,75.131,100,65.625V0z"/>
</g>
</g></g><g transform="translate(238,336) scale(0.14,0.14)"><g transform="" style="fill: rgb(255, 255, 255);">
<polygon points="100,100 50,0 50,0 0,100 "/>
</g></g><g transform="translate(280,336) scale(0.14,0.14)"><g transform="" style="fill: rgb(255, 255, 255);">
<g>
	<path d="M100,0H0v65.625c0,9.506,3.353,17.611,10.059,24.316S24.87,100,34.375,100H100V0z"/>
</g>
</g></g><g transform="translate(294,336) scale(0.14,0.14)"><g transform="" style="fill: rgb(255, 255, 255);">
<rect width="100" height="100"/>
</g></g><g transform="translate(308,336) scale(0.14,0.14)"><g transform="" style="fill: rgb(255, 255, 255);">
<rect width="100" height="100"/>
</g></g><g transform="translate(322,336) scale(0.14,0.14)"><g transform="" style="fill: rgb(255, 255, 255);">
<rect width="100" height="100"/>
</g></g><g transform="translate(336,336) scale(0.14,0.14)"><g transform="" style="fill: rgb(255, 255, 255);">
<rect width="100" height="100"/>
</g></g><g transform="translate(364,336) scale(0.14,0.14)"><g transform="" style="fill: rgb(255, 255, 255);">
<polygon points="99.999,49.999 99.998,49.999 49.999,0 0,49.999 -0.001,49.999 -0.001,50 0,50 49.999,99.999 99.998,50 99.999,50 
	99.998,50 "/>
</g></g><g transform="translate(112,350) scale(0.14,0.14)"><g transform="" style="fill: rgb(255, 255, 255);">
<g>
	<path d="M100,34.375V0H34.375C24.87,0,16.764,3.353,10.059,10.059S0,24.87,0,34.375V100h100V34.375z"/>
</g>
</g></g><g transform="translate(126,350) scale(0.14,0.14)"><g transform="" style="fill: rgb(255, 255, 255);">
<rect width="100" height="100"/>
</g></g><g transform="translate(140,350) scale(0.14,0.14)"><g transform="" style="fill: rgb(255, 255, 255);">
<rect width="100" height="100"/>
</g></g><g transform="translate(154,350) scale(0.14,0.14)"><g transform="" style="fill: rgb(255, 255, 255);">
<rect width="100" height="100"/>
</g></g><g transform="translate(182,350) scale(0.14,0.14)"><g transform="" style="fill: rgb(255, 255, 255);">
<g>
	<path d="M100,34.375V0H34.375C24.87,0,16.764,3.353,10.059,10.059S0,24.87,0,34.375V100h100V34.375z"/>
</g>
</g></g><g transform="translate(196,350) scale(0.14,0.14)"><g transform="" style="fill: rgb(255, 255, 255);">
<rect width="100" height="100"/>
</g></g><g transform="translate(224,350) scale(0.14,0.14)"><g transform="" style="fill: rgb(255, 255, 255);">
<polygon points="100,100 0,50 0,50 100,0 "/>
</g></g><g transform="translate(238,350) scale(0.14,0.14)"><g transform="" style="fill: rgb(255, 255, 255);">
<g>
	<path d="M100,0H0v100h65.625c9.506,0,17.611-3.354,24.316-10.059S100,75.131,100,65.625V0z"/>
</g>
</g></g><g transform="translate(266,350) scale(0.14,0.14)"><g transform="" style="fill: rgb(255, 255, 255);">
<polygon points="99.999,49.999 99.998,49.999 49.999,0 0,49.999 -0.001,49.999 -0.001,50 0,50 49.999,99.999 99.998,50 99.999,50 
	99.998,50 "/>
</g></g><g transform="translate(294,350) scale(0.14,0.14)"><g transform="" style="fill: rgb(255, 255, 255);">
<rect width="100" height="100"/>
</g></g><g transform="translate(322,350) scale(0.14,0.14)"><g transform="" style="fill: rgb(255, 255, 255);">
<g>
	<path d="M100,0H0v65.625c0,9.506,3.353,17.611,10.059,24.316S24.87,100,34.375,100H100V0z"/>
</g>
</g></g><g transform="translate(336,350) scale(0.14,0.14)"><g transform="" style="fill: rgb(255, 255, 255);">
<rect width="100" height="100"/>
</g></g><g transform="translate(350,350) scale(0.14,0.14)"><g transform="" style="fill: rgb(255, 255, 255);">
<polygon points="0,100 100,50 100,50 0,0 "/>
</g></g><g transform="translate(392,350) scale(0.14,0.14)"><g transform="" style="fill: rgb(255, 255, 255);">
<polygon points="100,100 50,0 50,0 0,100 "/>
</g></g><g transform="translate(112,364) scale(0.14,0.14)"><g transform="" style="fill: rgb(255, 255, 255);">
<g>
	<path d="M100,0H0v65.625c0,9.506,3.353,17.611,10.059,24.316S24.87,100,34.375,100H100V0z"/>
</g>
</g></g><g transform="translate(126,364) scale(0.14,0.14)"><g transform="" style="fill: rgb(255, 255, 255);">
<rect width="100" height="100"/>
</g></g><g transform="translate(154,364) scale(0.14,0.14)"><g transform="" style="fill: rgb(255, 255, 255);">
<rect width="100" height="100"/>
</g></g><g transform="translate(168,364) scale(0.14,0.14)"><g transform="" style="fill: rgb(255, 255, 255);">
<rect width="100" height="100"/>
</g></g><g transform="translate(182,364) scale(0.14,0.14)"><g transform="" style="fill: rgb(255, 255, 255);">
<rect width="100" height="100"/>
</g></g><g transform="translate(196,364) scale(0.14,0.14)"><g transform="" style="fill: rgb(255, 255, 255);">
<g>
	<path d="M100,0H0v100h65.625c9.506,0,17.611-3.354,24.316-10.059S100,75.131,100,65.625V0z"/>
</g>
</g></g><g transform="translate(280,364) scale(0.14,0.14)"><g transform="" style="fill: rgb(255, 255, 255);">
<g>
	<path d="M100,34.375V0H34.375C24.87,0,16.764,3.353,10.059,10.059S0,24.87,0,34.375V100h100V34.375z"/>
</g>
</g></g><g transform="translate(294,364) scale(0.14,0.14)"><g transform="" style="fill: rgb(255, 255, 255);">
<rect width="100" height="100"/>
</g></g><g transform="translate(364,364) scale(0.14,0.14)"><g transform="" style="fill: rgb(255, 255, 255);">
<polygon points="99.999,49.999 99.998,49.999 49.999,0 0,49.999 -0.001,49.999 -0.001,50 0,50 49.999,99.999 99.998,50 99.999,50 
	99.998,50 "/>
</g></g><g transform="translate(392,364) scale(0.14,0.14)"><g transform="" style="fill: rgb(255, 255, 255);">
<polygon points="0,-0.001 50,99.999 50,99.999 100,-0.001 "/>
</g></g><g transform="translate(126,378) scale(0.14,0.14)"><g transform="" style="fill: rgb(255, 255, 255);">
<g>
	<path d="M100,0H0v65.625c0,9.506,3.353,17.611,10.059,24.316S24.87,100,34.375,100H100V0z"/>
</g>
</g></g><g transform="translate(140,378) scale(0.14,0.14)"><g transform="" style="fill: rgb(255, 255, 255);">
<rect width="100" height="100"/>
</g></g><g transform="translate(154,378) scale(0.14,0.14)"><g transform="" style="fill: rgb(255, 255, 255);">
<rect width="100" height="100"/>
</g></g><g transform="translate(210,378) scale(0.14,0.14)"><g transform="" style="fill: rgb(255, 255, 255);">
<polygon points="100,100 0,50 0,50 100,0 "/>
</g></g><g transform="translate(224,378) scale(0.14,0.14)"><g transform="" style="fill: rgb(255, 255, 255);">
<polygon points="0,100 100,50 100,50 0,0 "/>
</g></g><g transform="translate(280,378) scale(0.14,0.14)"><g transform="" style="fill: rgb(255, 255, 255);">
<rect width="100" height="100"/>
</g></g><g transform="translate(294,378) scale(0.14,0.14)"><g transform="" style="fill: rgb(255, 255, 255);">
<g>
	<path d="M100,0H0v100h65.625c9.506,0,17.611-3.354,24.316-10.059S100,75.131,100,65.625V0z"/>
</g>
</g></g><g transform="translate(322,378) scale(0.14,0.14)"><g transform="" style="fill: rgb(255, 255, 255);">
<polygon points="99.999,49.999 99.998,49.999 49.999,0 0,49.999 -0.001,49.999 -0.001,50 0,50 49.999,99.999 99.998,50 99.999,50 
	99.998,50 "/>
</g></g><g transform="translate(350,378) scale(0.14,0.14)"><g transform="" style="fill: rgb(255, 255, 255);">
<polygon points="99.999,49.999 99.998,49.999 49.999,0 0,49.999 -0.001,49.999 -0.001,50 0,50 49.999,99.999 99.998,50 99.999,50 
	99.998,50 "/>
</g></g><g transform="translate(378,378) scale(0.14,0.14)"><g transform="" style="fill: rgb(255, 255, 255);">
<polygon points="100,100 50,0 50,0 0,100 "/>
</g></g><g transform="translate(112,392) scale(0.14,0.14)"><g transform="" style="fill: rgb(255, 255, 255);">
<polygon points="99.999,49.999 99.998,49.999 49.999,0 0,49.999 -0.001,49.999 -0.001,50 0,50 49.999,99.999 99.998,50 99.999,50 
	99.998,50 "/>
</g></g><g transform="translate(140,392) scale(0.14,0.14)"><g transform="" style="fill: rgb(255, 255, 255);">
<g>
	<path d="M100,0H0v65.625c0,9.506,3.353,17.611,10.059,24.316S24.87,100,34.375,100H100V0z"/>
</g>
</g></g><g transform="translate(154,392) scale(0.14,0.14)"><g transform="" style="fill: rgb(255, 255, 255);">
<g>
	<path d="M100,0H0v100h65.625c9.506,0,17.611-3.354,24.316-10.059S100,75.131,100,65.625V0z"/>
</g>
</g></g><g transform="translate(238,392) scale(0.14,0.14)"><g transform="" style="fill: rgb(255, 255, 255);">
<polygon points="100,100 0,50 0,50 100,0 "/>
</g></g><g transform="translate(252,392) scale(0.14,0.14)"><g transform="" style="fill: rgb(255, 255, 255);">
<polygon points="0,100 100,50 100,50 0,0 "/>
</g></g><g transform="translate(280,392) scale(0.14,0.14)"><g transform="" style="fill: rgb(255, 255, 255);">
<polygon points="0,-0.001 50,99.999 50,99.999 100,-0.001 "/>
</g></g><g transform="translate(308,392) scale(0.14,0.14)"><g transform="" style="fill: rgb(255, 255, 255);">
<polygon points="99.999,49.999 99.998,49.999 49.999,0 0,49.999 -0.001,49.999 -0.001,50 0,50 49.999,99.999 99.998,50 99.999,50 
	99.998,50 "/>
</g></g><g transform="translate(378,392) scale(0.14,0.14)"><g transform="" style="fill: rgb(255, 255, 255);">
<polygon points="0,-0.001 50,99.999 50,99.999 100,-0.001 "/>
</g></g></g></mask></defs></g><rect x="0" y="0" width="406" height="406" fill="url(#grad)" mask="url(#gmask)" /><g transform="translate(0,0) scale(0.98, 0.98)"><g transform="" style="fill: rgb(63, 107, 43);">
<path d="M21.475,99.992c-6.648,0-12.964-6.852-13.958-13.207L0.011-0.008l88.112,5.649c6.212,0.931,11.096,6.804,11.104,13.848
	l0.762,80.503H21.475z M85.706,85.71l-0.544-57.492c-0.005-5.029-3.495-9.233-7.931-9.898l-62.938-4.03l5.36,61.98
	c0.71,4.536,5.222,9.44,9.971,9.44H85.706z"/>
</g></g><g transform="translate(308,0) scale(0.98, 0.98)"><g transform=" translate(100, 0) scale(-1,1) " style="fill: rgb(63, 107, 43);">
<path d="M21.475,99.992c-6.648,0-12.964-6.852-13.958-13.207L0.011-0.008l88.112,5.649c6.212,0.931,11.096,6.804,11.104,13.848
	l0.762,80.503H21.475z M85.706,85.71l-0.544-57.492c-0.005-5.029-3.495-9.233-7.931-9.898l-62.938-4.03l5.36,61.98
	c0.71,4.536,5.222,9.44,9.971,9.44H85.706z"/>
</g></g><g transform="translate(0,308) scale(0.98, 0.98)"><g transform=" translate(0,100) scale(1,-1) " style="fill: rgb(63, 107, 43);">
<path d="M21.475,99.992c-6.648,0-12.964-6.852-13.958-13.207L0.011-0.008l88.112,5.649c6.212,0.931,11.096,6.804,11.104,13.848
	l0.762,80.503H21.475z M85.706,85.71l-0.544-57.492c-0.005-5.029-3.495-9.233-7.931-9.898l-62.938-4.03l5.36,61.98
	c0.71,4.536,5.222,9.44,9.971,9.44H85.706z"/>
</g></g><g transform="translate(28,28) scale(0.42, 0.42)"><g transform="" style="fill: rgb(96, 165, 65);">
<path d="M21.468,99.999c-6.65,0-12.966-6.875-13.959-13.225L0.003-0.001L88.13,5.638c6.21,0.93,11.099,6.823,11.105,13.866
	l0.762,80.495H21.468z"/>
</g></g><g transform="translate(336,28) scale(0.42, 0.42)"><g transform=" translate(100, 0) scale(-1,1) " style="fill: rgb(96, 165, 65);">
<path d="M21.468,99.999c-6.65,0-12.966-6.875-13.959-13.225L0.003-0.001L88.13,5.638c6.21,0.93,11.099,6.823,11.105,13.866
	l0.762,80.495H21.468z"/>
</g></g><g transform="translate(28,336) scale(0.42, 0.42)"><g transform=" translate(0,100) scale(1,-1) " style="fill: rgb(96, 165, 65);">
<path d="M21.468,99.999c-6.65,0-12.966-6.875-13.959-13.225L0.003-0.001L88.13,5.638c6.21,0.93,11.099,6.823,11.105,13.866
	l0.762,80.495H21.468z"/>
</g></g></g></svg>